<svg width="125" height="73" viewBox="0 0 125 73" fill="none" xmlns="http://www.w3.org/2000/svg">
<path d="M12.3398 67H10.7188V51.8047H12.3398V67ZM32.3594 67L32.0371 65.4766H31.959C31.4251 66.1471 30.8913 66.6029 30.3574 66.8438C29.8301 67.0781 29.1693 67.1953 28.375 67.1953C27.3138 67.1953 26.4805 66.9219 25.875 66.375C25.276 65.8281 24.9766 65.0501 24.9766 64.041C24.9766 61.8796 26.7051 60.7467 30.1621 60.6426L31.9785 60.584V59.9199C31.9785 59.0801 31.7962 58.4616 31.4316 58.0645C31.0736 57.6608 30.4974 57.459 29.7031 57.459C28.8112 57.459 27.8021 57.7324 26.6758 58.2793L26.1777 57.0391C26.7051 56.7526 27.2812 56.528 27.9062 56.3652C28.5378 56.2025 29.1693 56.1211 29.8008 56.1211C31.0768 56.1211 32.0208 56.4043 32.6328 56.9707C33.2513 57.5371 33.5605 58.4453 33.5605 59.6953V67H32.3594ZM28.6973 65.8574C29.7064 65.8574 30.4974 65.5807 31.0703 65.0273C31.6497 64.474 31.9395 63.6992 31.9395 62.7031V61.7363L30.3184 61.8047C29.0293 61.8503 28.0983 62.0521 27.5254 62.4102C26.959 62.7617 26.6758 63.3118 26.6758 64.0605C26.6758 64.6465 26.8516 65.0924 27.2031 65.3984C27.5612 65.7044 28.0592 65.8574 28.6973 65.8574ZM45.2109 56.2969H46.9492L49.293 62.4004C49.8073 63.7936 50.1263 64.7995 50.25 65.418H50.3281C50.4128 65.0859 50.5885 64.5195 50.8555 63.7188C51.1289 62.9115 52.0143 60.4375 53.5117 56.2969H55.25L50.6504 68.4844C50.1947 69.6888 49.6608 70.5417 49.0488 71.043C48.4434 71.5508 47.6979 71.8047 46.8125 71.8047C46.3177 71.8047 45.8294 71.7493 45.3477 71.6387V70.3398C45.7057 70.418 46.1061 70.457 46.5488 70.457C47.6621 70.457 48.4564 69.832 48.9316 68.582L49.5273 67.0586L45.2109 56.2969ZM76.2266 61.6387C76.2266 63.3835 75.7871 64.7474 74.9082 65.7305C74.0293 66.707 72.8151 67.1953 71.2656 67.1953C70.3086 67.1953 69.459 66.9707 68.7168 66.5215C67.9746 66.0723 67.4017 65.4277 66.998 64.5879C66.5944 63.748 66.3926 62.765 66.3926 61.6387C66.3926 59.8939 66.8288 58.5365 67.7012 57.5664C68.5736 56.5898 69.7845 56.1016 71.334 56.1016C72.8314 56.1016 74.0195 56.5996 74.8984 57.5957C75.7839 58.5918 76.2266 59.9395 76.2266 61.6387ZM68.0723 61.6387C68.0723 63.0059 68.3457 64.0475 68.8926 64.7637C69.4395 65.4798 70.2435 65.8379 71.3047 65.8379C72.3659 65.8379 73.1699 65.4831 73.7168 64.7734C74.2702 64.0573 74.5469 63.0124 74.5469 61.6387C74.5469 60.278 74.2702 59.2461 73.7168 58.543C73.1699 57.8333 72.3594 57.4785 71.2852 57.4785C70.224 57.4785 69.4232 57.8268 68.8828 58.5234C68.3424 59.2201 68.0723 60.2585 68.0723 61.6387ZM90.6016 56.2969V63.2402C90.6016 64.1126 90.8001 64.7637 91.1973 65.1934C91.5944 65.623 92.2161 65.8379 93.0625 65.8379C94.1823 65.8379 94.9993 65.5319 95.5137 64.9199C96.0345 64.3079 96.2949 63.3086 96.2949 61.9219V56.2969H97.916V67H96.5781L96.3438 65.5645H96.2559C95.9238 66.0918 95.4616 66.4954 94.8691 66.7754C94.2832 67.0553 93.6126 67.1953 92.8574 67.1953C91.5553 67.1953 90.5788 66.8861 89.9277 66.2676C89.2832 65.6491 88.9609 64.6595 88.9609 63.2988V56.2969H90.6016ZM114.82 65.8574C115.107 65.8574 115.383 65.8379 115.65 65.7988C115.917 65.7533 116.129 65.7077 116.285 65.6621V66.9023C116.109 66.987 115.849 67.0553 115.504 67.1074C115.165 67.166 114.859 67.1953 114.586 67.1953C112.516 67.1953 111.48 66.1048 111.48 63.9238V57.5566H109.947V56.7754L111.48 56.1016L112.164 53.8164H113.102V56.2969H116.207V57.5566H113.102V63.8555C113.102 64.5 113.255 64.9948 113.561 65.3398C113.867 65.6849 114.286 65.8574 114.82 65.8574Z" fill="#423A39"/>
<path d="M10.512 20.936H0.192V13.4H30.288V20.936H20.016V47H10.512V20.936ZM60.8048 39.656V47H33.8288V13.4H60.1808V20.744H43.2368V26.408H58.1648V33.512H43.2368V39.656H60.8048ZM104.309 20.936H93.9889V13.4H124.085V20.936H113.813V47H104.309V20.936Z" fill="#423A39"/>
<path d="M77.8868 47.672C75.1668 47.672 72.5268 47.336 69.9668 46.664C67.4068 45.992 65.3268 45.096 63.7268 43.976L66.8468 36.968C68.3508 37.96 70.0948 38.76 72.0788 39.368C74.0628 39.976 76.0148 40.28 77.9348 40.28C81.5828 40.28 83.4068 39.368 83.4068 37.544C83.4068 36.584 82.8788 35.88 81.8228 35.432C80.7988 34.952 79.1348 34.456 76.8307 33.944C74.3028 33.4 72.1908 32.824 70.4948 32.216C68.7988 31.576 67.3428 30.568 66.1268 29.192C64.9108 27.816 64.3027 25.96 64.3027 23.624C64.3027 21.576 64.8628 19.736 65.9828 18.104C67.1028 16.44 68.7668 15.128 70.9748 14.168C73.2148 13.208 75.9508 12.728 79.1828 12.728C81.3908 12.728 83.5668 12.984 85.7108 13.496C87.8548 13.976 89.7428 14.696 91.3748 15.656L88.4468 22.712C85.2468 20.984 82.1428 20.12 79.1348 20.12C77.2468 20.12 75.8708 20.408 75.0068 20.984C74.1428 21.528 73.7108 22.248 73.7108 23.144C73.7108 24.04 74.2228 24.712 75.2468 25.16C76.2708 25.608 77.9188 26.072 80.1908 26.552C82.7508 27.096 84.8628 27.688 86.5268 28.328C88.2228 28.936 89.6788 29.928 90.8948 31.304C92.1428 32.648 92.7668 34.488 92.7668 36.824C92.7668 38.84 92.2068 40.664 91.0868 42.296C89.9668 43.928 88.2868 45.24 86.0468 46.232C83.8068 47.192 81.0868 47.672 77.8868 47.672Z" fill="#FF5B5B"/>
<rect x="77" y="11" width="17" height="13" fill="white"/>
<circle cx="85.5" cy="16.5" r="5.5" fill="#FF5B5B"/>
</svg>
