<svg width="7" height="13" viewBox="0 0 7 13" fill="none" xmlns="http://www.w3.org/2000/svg">
<path d="M6.45677 6.38568L6.45712 6.38604C6.48214 6.41156 6.49998 6.45135 6.5 6.50004C6.50002 6.54866 6.48226 6.58879 6.45708 6.61471C6.45702 6.61477 6.45696 6.61483 6.4569 6.61489L0.740571 12.4581C0.740533 12.4581 0.740496 12.4581 0.740458 12.4582C0.685616 12.514 0.600613 12.5139 0.545814 12.4581L0.188791 12.8081L0.546256 12.4585C0.485187 12.3961 0.485815 12.2913 0.545814 12.2301L0.546214 12.2297L5.80932 6.84931L6.15135 6.49966L5.80929 6.15002L0.545559 0.769602L0.54518 0.769216C0.485024 0.707859 0.484941 0.60368 0.54493 0.542205C0.600673 0.48569 0.685191 0.486331 0.739727 0.541735C0.739798 0.541806 0.739868 0.541878 0.739938 0.541949L6.45677 6.38568ZM5.45189 6.49968L0.188785 11.8801L0.188151 0.191906C-0.0627165 0.44778 -0.0627165 0.863385 0.188151 1.11926L5.45189 6.49968Z" stroke="#1C2027"/>
</svg>
