<svg width="8" height="14" viewBox="0 0 8 14" fill="none" xmlns="http://www.w3.org/2000/svg">
<path d="M0.55923 6.86045L0.558867 6.8608C0.480689 6.93595 0.480048 7.06371 0.558922 7.14001C0.558957 7.14004 0.558991 7.14008 0.559026 7.14011L7.09207 13.4328C7.09214 13.4329 7.0922 13.433 7.09226 13.433C7.18538 13.5223 7.3444 13.5223 7.43754 13.4331C7.52018 13.3532 7.51944 13.2329 7.43777 13.1544L7.43736 13.154L1.42239 7.35975L1.04855 6.99963L1.42241 6.63953L7.43811 0.845238L7.4385 0.844862C7.52042 0.766125 7.5205 0.646214 7.43874 0.567393C7.34445 0.477235 7.18566 0.477916 7.0928 0.567162L0.55923 6.86045Z" stroke="#E0E0EB"/>
</svg>
