<svg width="8" height="14" viewBox="0 0 8 14" fill="none" xmlns="http://www.w3.org/2000/svg">
<path d="M7.44077 6.86045L7.44113 6.8608C7.51929 6.93593 7.51995 7.06362 7.44115 7.13994C7.44109 7.14 7.44103 7.14005 7.44097 7.14011L0.907926 13.4328C0.907865 13.4329 0.907803 13.433 0.907741 13.433C0.814609 13.5223 0.655558 13.5223 0.562422 13.433C0.479815 13.3532 0.480569 13.2329 0.562229 13.1544L0.562641 13.154L6.57761 7.35975L6.95145 6.99963L6.57759 6.63953L0.561895 0.845238L0.561504 0.844862C0.479558 0.766104 0.479499 0.646151 0.561327 0.567332C0.655587 0.477265 0.814261 0.477935 0.90711 0.567073C0.907141 0.567102 0.907172 0.567132 0.907202 0.567162L7.44077 6.86045Z" stroke="#E0E0EB"/>
</svg>
